Coordinates
version=1
nRows=11
nColumns=40
inDegrees=yes

Units are S.I. units (second, meters, Newtons, ...)
Angles are in degrees.

endheader
time	pelvis_tilt	pelvis_list	pelvis_rotation	pelvis_tx	pelvis_ty	pelvis_tz	hip_flexion_r	hip_adduction_r	hip_rotation_r	knee_angle_r	knee_angle_r_beta	ankle_angle_r	subtalar_angle_r	mtp_angle_r	hip_flexion_l	hip_adduction_l	hip_rotation_l	knee_angle_l	knee_angle_l_beta	ankle_angle_l	subtalar_angle_l	mtp_angle_l	lumbar_extension	lumbar_bending	lumbar_rotation	arm_flex_r	arm_add_r	arm_rot_r	elbow_flex_r	pro_sup_r	wrist_flex_r	wrist_dev_r	arm_flex_l	arm_add_l	arm_rot_l	elbow_flex_l	pro_sup_l	wrist_flex_l	wrist_dev_l
      3.64628571	     -2.36232894	     -6.53428691	      3.01040963	      0.99253593	      0.93131335	      0.49719625	      6.27869993	      4.97708049	    -17.04990083	     12.20831469	     12.20831469	     10.05541061	     -0.85730193	     -7.07391561	     34.07050157	    -12.06600768	      1.15738622	     52.10852270	     52.10852270	     12.01082127	    -19.03925080	     17.69805608	    -11.28110876	      7.86187100	      2.36863191	     26.26019614	    -16.59757981	     -6.55105904	     46.42118445	     45.72296981	      0.00000000	      0.00000000	      0.10574413	     -7.39139252	      2.47769588	     29.57576531	     46.11033418	      0.00000000	      0.00000000
      3.65757143	     -2.39794628	     -6.51991799	      3.18336726	      0.99170553	      0.93109026	      0.49743210	      5.46189473	      5.08804381	    -17.17862627	     11.68092971	     11.68092971	     10.39914312	     -0.50681414	     -7.17544496	     34.56889041	    -11.73197744	      1.01329335	     48.64611829	     48.64611829	     11.81031529	    -18.90821822	     17.86128617	    -11.28035795	      7.73741012	      2.34939339	     28.29269893	    -16.65585495	     -6.31764540	     48.30476148	     45.65323994	      0.00000000	      0.00000000	     -0.93888903	     -7.26495240	      2.76058890	     28.10397356	     46.04820605	      0.00000000	      0.00000000
      3.66885714	     -2.47320826	     -6.53819973	      3.32301587	      0.99091755	      0.93069795	      0.49739165	      4.66737500	      5.20081053	    -17.41837342	     11.11974677	     11.11974677	     10.66008580	      0.06060706	     -7.26856453	     34.94656347	    -11.30913449	      1.04581039	     44.99972767	     44.99972767	     11.59939829	    -18.73347060	     17.61895277	    -11.31062208	      7.70395010	      2.20855149	     30.24519818	    -16.74175713	     -5.95673625	     50.57509413	     45.56433571	      0.00000000	      0.00000000	     -1.93032533	     -7.08792789	      3.08733540	     26.49764058	     45.97972252	      0.00000000	      0.00000000
      3.68014286	     -2.67855915	     -6.53348163	      3.39959388	      0.99019880	      0.92994136	      0.49733775	      4.08218315	      5.26735664	    -17.51567695	     10.71187669	     10.71187669	     11.00548679	      0.42698610	     -7.36006300	     35.37124692	    -10.86153227	      1.10696412	     41.33473682	     41.33473682	     11.42526158	    -18.20635266	     17.52859188	    -11.10723078	      7.57598264	      2.44084261	     32.18430198	    -17.03950618	     -5.82655865	     52.27701141	     45.50802830	      0.00000000	      0.00000000	     -2.91281264	     -6.85964883	      3.26752089	     25.57562880	     45.93308100	      0.00000000	      0.00000000
      3.69142857	     -2.67838680	     -6.59107819	      3.57524954	      0.98973412	      0.92942204	      0.49700110	      3.16588072	      5.34651003	    -18.34852459	     10.17068838	     10.17068838	     11.47600572	      2.07248441	     -7.35989004	     35.26374490	    -10.47988392	      1.13796507	     37.15961990	     37.15961990	      9.54733941	    -17.62608652	     13.31198796	    -11.23084539	      7.65824031	      2.96321514	     32.57643613	    -18.27050111	     -4.22092674	     57.89887384	     45.25252842	      0.00000000	      0.00000000	     -3.18052049	     -6.59669546	      4.13439880	     22.99640955	     45.78142203	      0.00000000	      0.00000000
      3.70271429	     -2.80069847	     -6.57793466	      3.66737438	      0.98931560	      0.92869250	      0.49673592	      2.44393773	      5.42881039	    -18.34428727	      9.69917211	      9.69917211	     11.79136360	      2.30711418	     -7.31480082	     35.33436711	    -10.03327553	      1.23661858	     33.40712797	     33.40712797	      9.34896471	    -16.19192874	     13.26901636	    -11.11633204	      7.57324302	      2.85772750	     34.49662542	    -18.05823263	     -4.35703116	     59.60007244	     45.21104541	      0.00000000	      0.00000000	     -4.41158737	     -6.54105641	      4.28067556	     22.41717446	     45.72886502	      0.00000000	      0.00000000
      3.71400000	     -2.89157538	     -6.66287745	      3.78595581	      0.98908952	      0.92784607	      0.49631912	      1.63249041	      5.59798557	    -18.62665480	      9.15043989	      9.15043989	     12.13143869	      2.99550642	     -7.22621893	     35.32523997	     -9.75496904	      1.19328950	     29.80076170	     29.80076170	      9.00829298	    -14.16113842	     12.60131158	    -11.06400954	      7.64770977	      2.63218907	     36.25938140	    -17.81453318	     -4.33977800	     62.03824795	     45.13967508	      0.00000000	      0.00000000	     -5.69657292	     -6.44465435	      4.46191494	     22.00119777	     45.66553622	      0.00000000	      0.00000000
      3.72528571	     -2.99515779	     -6.70402150	      3.85210796	      0.98912967	      0.92685957	      0.49584513	      0.88288286	      5.69657815	    -18.82269552	      8.74177032	      8.74177032	     12.53799302	      3.61550105	     -7.12384826	     35.24283175	     -9.49523966	      0.96274157	     26.43144101	     26.43144101	      8.74108045	    -11.81793676	     12.02252709	    -10.93199117	      7.63368752	      2.61466744	     37.77006591	    -17.74630472	     -4.28482545	     64.38600720	     45.07014705	      0.00000000	      0.00000000	     -6.92836787	     -6.40010970	      4.59751018	     21.81750602	     45.60983522	      0.00000000	      0.00000000
      3.73657143	     -3.31637986	     -6.96309345	      3.89155369	      0.98897388	      0.92528059	      0.49528000	      0.53789317	      5.98049215	    -18.86403804	      8.58831961	      8.58831961	     12.90024966	      3.77341375	     -7.19907556	     35.60022229	     -9.36081492	      1.10177424	     23.69027409	     23.69027409	      8.47198110	     -9.98994614	     12.25094220	    -10.53128430	      7.90198687	      2.93581435	     39.47191500	    -18.07012890	     -4.44488292	     65.53194092	     45.04665950	      0.00000000	      0.00000000	     -7.99137802	     -6.30475105	      4.62162355	     21.56403108	     45.58242640	      0.00000000	      0.00000000
      3.74785714	     -3.23586016	     -6.85542403	      3.91204422	      0.98968803	      0.92451181	      0.49465595	     -0.50509625	      5.90820989	    -19.22540232	      8.16093018	      8.16093018	     13.67219129	      4.96719017	     -6.11994880	     35.04080825	     -9.14929033	      0.02938733	     20.73348207	     20.73348207	      7.69779345	     -7.16408455	     10.33218754	    -10.68969491	      7.71678439	      3.03107573	     39.73803563	    -18.07724449	     -4.21708006	     70.78272073	     44.90106700	      0.00000000	      0.00000000	     -9.49452096	     -6.49647206	      5.26142762	     22.75985683	     45.40551498	      0.00000000	      0.00000000
      3.75914286	     -3.31747221	     -6.85704458	      3.90866450	      0.99026256	      0.92325655	      0.49380760	     -1.19885827	      5.91620984	    -19.19158474	      7.97702990	      7.97702990	     14.11067043	      5.20115209	     -6.06821035	     34.88850292	     -8.90825777	     -0.57369684	     18.64042316	     18.64042316	      7.50699981	     -5.32028826	     10.55283787	    -10.51078439	      7.70093956	      2.89414360	     41.21834519	    -17.66922977	     -4.26032825	     72.45343681	     44.86165482	      0.00000000	      0.00000000	    -10.64758100	     -6.39969920	      5.44752241	     22.58706183	     45.34697247	      0.00000000	      0.00000000
